HIERARCHY
ROOT Hips
{
 OFFSET 0.000000 0.000000 0.000000
 CHANNELS 6 Xposition Yposition Zposition Yrotation Xrotation Zrotation
 JOINT Chest
 {
  OFFSET 0.000000 9.585900 0.002600
  CHANNELS 3 Yrotation Xrotation Zrotation
  JOINT Chest2
  {
   OFFSET 0.000000 9.601200 -0.005300
   CHANNELS 3 Yrotation Xrotation Zrotation
   JOINT Chest3
   {
    OFFSET 0.000000 9.561800 0.000000
    CHANNELS 3 Yrotation Xrotation Zrotation
    JOINT Chest4
    {
     OFFSET 0.000000 9.552100 0.000000
     CHANNELS 3 Yrotation Xrotation Zrotation
     JOINT Neck
     {
      OFFSET 0.000000 14.453000 0.000000
      CHANNELS 3 Yrotation Xrotation Zrotation
      JOINT Head
      {
       OFFSET 0.000000 8.936500 -0.011300
       CHANNELS 3 Yrotation Xrotation Zrotation
       End Site
       {
        OFFSET 0.000000 17.073600 -0.006000
       }
      }
     }
     JOINT RightCollar
     {
      OFFSET -2.921100 9.558500 0.000000
      CHANNELS 3 Yrotation Xrotation Zrotation
      JOINT RightShoulder
      {
       OFFSET -13.519700 0.000000 0.000000
       CHANNELS 3 Yrotation Xrotation Zrotation
       JOINT RightElbow
       {
        OFFSET 0.000000 -29.696600 0.000000
        CHANNELS 3 Yrotation Xrotation Zrotation
        JOINT RightWrist
        {
         OFFSET 0.000000 -24.004700 0.000000
         CHANNELS 3 Yrotation Xrotation Zrotation
         End Site
         {
          OFFSET 0.000000 -17.728500 0.000000
         }
        }
       }
      }
     }
     JOINT LeftCollar
     {
      OFFSET 2.921100 9.558500 0.000000
      CHANNELS 3 Yrotation Xrotation Zrotation
      JOINT LeftShoulder
      {
       OFFSET 13.519700 0.000000 0.000000
       CHANNELS 3 Yrotation Xrotation Zrotation
       JOINT LeftElbow
       {
        OFFSET 0.000000 -29.696600 0.000000
        CHANNELS 3 Yrotation Xrotation Zrotation
        JOINT LeftWrist
        {
         OFFSET 0.000000 -24.004700 0.000000
         CHANNELS 3 Yrotation Xrotation Zrotation
         End Site
         {
          OFFSET 0.000000 -17.728500 0.000000
         }
        }
       }
      }
     }
    }
   }
  }
 }
 JOINT RightHip
 {
  OFFSET -7.771700 -0.012900 -0.001300
  CHANNELS 3 Yrotation Xrotation Zrotation
  JOINT RightKnee
  {
   OFFSET 0.000000 -40.869800 0.001200
   CHANNELS 3 Yrotation Xrotation Zrotation
   JOINT RightAnkle
   {
    OFFSET 0.000000 -39.717900 0.002100
    CHANNELS 3 Yrotation Xrotation Zrotation
    JOINT RightToe
    {
     OFFSET 0.000000 -4.965400 11.033500
     CHANNELS 3 Yrotation Xrotation Zrotation
     End Site
     {
      OFFSET 0.000000 -1.423100 5.872300
     }
    }
   }
  }
 }
 JOINT LeftHip
 {
  OFFSET 7.771700 -0.012900 -0.001300
  CHANNELS 3 Yrotation Xrotation Zrotation
  JOINT LeftKnee
  {
   OFFSET 0.000000 -40.869800 0.001200
   CHANNELS 3 Yrotation Xrotation Zrotation
   JOINT LeftAnkle
   {
    OFFSET 0.000000 -39.717900 0.002100
    CHANNELS 3 Yrotation Xrotation Zrotation
    JOINT LeftToe
    {
     OFFSET 0.000000 -4.965400 11.033500
     CHANNELS 3 Yrotation Xrotation Zrotation
     End Site
     {
      OFFSET 0.000000 -1.423100 5.872300
     }
    }
   }
  }
 }
}
MOTION
Frames: 9
Frame Time: 0.008333
-26.761707 46.682248 17.795926 176.737385 -32.231387 -4.465725 1.628548 18.108805 2.266724 0.075555 2.060284 0.188422 0.128953 3.411635 0.313593 0.779852 15.906210 1.563024 -0.464153 19.639722 -1.388503 -0.423104 0.679669 -2.392572 0.457180 1.348154 -1.924434 4.916652 -8.857566 -15.071409 -46.459005 -54.915197 95.309191 -1.994492 4.768751 -10.399023 2.880953 0.092562 3.119361 -7.806489 -4.686262 11.512448 63.118828 -66.046715 -104.694594 1.890162 9.657360 12.479506 -2.578509 -54.597407 -0.701685 -149.695768 76.238797 -140.746447 -14.449217 -21.289577 -4.479521 -0.107135 -0.976115 -0.234810 2.366909 -57.404069 13.630526 -95.374280 80.331014 -101.456734 2.968865 -2.835915 6.498510 0.676116 0.219850 0.338690
-26.773619 46.684125 17.788598 176.520686 -32.193779 -4.419032 1.737858 18.084487 2.270680 0.080890 2.052189 0.182775 0.137752 3.398885 0.304349 0.818324 15.880890 1.526769 -0.437640 19.641819 -1.477234 -0.347726 0.684891 -2.562703 0.470847 1.319886 -1.968545 5.196930 -8.829991 -15.073027 -45.973729 -54.333299 95.083243 -2.392775 4.510959 -11.139465 2.868152 0.100296 3.196356 -8.104824 -4.532573 11.579202 63.053419 -65.873332 -104.482205 2.090470 9.545928 13.331041 -2.995573 -54.551576 -0.750355 -148.985580 76.166055 -139.981971 -14.642542 -21.218073 -4.537399 -0.135034 -1.016295 -0.256268 2.414568 -57.468669 13.717717 -95.860135 80.332763 -101.884804 2.989034 -2.869105 6.440269 0.702807 0.189382 0.327231
-26.784200 46.684106 17.787051 176.260093 -32.123011 -4.344300 1.878089 18.027665 2.270429 0.086545 2.044365 0.177202 0.147035 3.386512 0.295309 0.859432 15.856116 1.491203 -0.411898 19.640761 -1.568561 -0.272849 0.684419 -2.737243 0.490072 1.286670 -2.021661 5.450260 -8.777770 -15.066800 -45.636018 -53.913211 94.961779 -2.659105 4.231605 -11.946445 2.863055 0.106507 3.276316 -8.347630 -4.370513 11.635016 63.074138 -65.781986 -104.332906 2.224004 9.475823 13.933918 -3.376545 -54.550249 -0.787515 -148.298919 76.083627 -139.251239 -14.766893 -21.128659 -4.593961 -0.194705 -1.063703 -0.291998 2.492323 -57.562926 13.811180 -96.244303 80.336762 -102.230596 2.968769 -2.898064 6.390810 0.754906 0.182830 0.324418
-26.801765 46.682148 17.788174 176.089659 -32.024579 -4.262554 1.920893 17.951787 2.211969 0.092334 2.036271 0.171704 0.156510 3.373752 0.286466 0.901882 15.830187 1.456545 -0.385786 19.638133 -1.660548 -0.196957 0.681145 -2.913046 0.514003 1.253664 -2.080484 5.680641 -8.704475 -15.049835 -45.403067 -53.684968 94.886560 -2.826380 3.986063 -12.719191 2.868590 0.116905 3.358844 -8.515806 -4.211788 11.679335 63.130034 -65.768767 -104.240588 2.295799 9.445772 14.231212 -3.770288 -54.585439 -0.892723 -147.637686 75.993009 -138.562265 -14.909390 -21.033796 -4.646975 -0.208497 -1.108966 -0.311908 2.568829 -57.675741 13.809413 -96.495234 80.364635 -102.473989 3.005299 -2.879242 6.406523 0.729058 0.144576 0.283505
-26.812976 46.684820 17.782853 175.865923 -31.980665 -4.171957 2.018012 17.926890 2.172513 0.143401 2.016847 0.188292 0.120385 3.370721 0.257162 0.947321 15.802029 1.422497 -0.359545 19.634392 -1.749351 -0.121839 0.675890 -3.083249 0.538795 1.224753 -2.139021 5.900433 -8.615895 -15.022661 -45.238638 -53.616253 94.818941 -2.900557 3.820339 -13.409011 2.889909 0.133750 3.440451 -8.611637 -4.066634 11.718963 63.215216 -65.822732 -104.221761 2.296336 9.469528 14.249246 -4.148775 -54.578764 -0.943027 -146.999492 75.897008 -137.910163 -15.024676 -20.905103 -4.687405 -0.238376 -1.176601 -0.344697 2.615459 -57.737769 13.835938 -97.029401 80.414794 -102.968901 3.047459 -2.906791 6.444243 0.699012 0.117837 0.196743
-26.816235 46.688686 17.775983 175.631341 -31.955119 -4.103231 2.133683 17.918265 2.158972 0.128930 2.013514 0.172573 0.153167 3.351558 0.257924 0.997788 15.773290 1.388969 -0.334593 19.628636 -1.832466 -0.050953 0.667075 -3.242758 0.560012 1.198874 -2.194325 6.114611 -8.518628 -14.987850 -45.128954 -53.653578 94.754798 -2.894697 3.747275 -13.994449 2.924533 0.152573 3.516231 -8.642462 -3.998160 11.739532 63.178249 -65.922294 -104.129507 2.234947 9.540925 14.075319 -4.564880 -54.558603 -0.918935 -146.394499 75.803297 -137.300944 -15.118628 -20.751444 -4.716750 -0.287525 -1.258752 -0.391445 2.696901 -57.777825 13.912564 -97.467334 80.415357 -103.336249 3.012944 -2.962428 6.405531 0.754940 0.117895 0.196324
-26.815885 46.690460 17.771287 175.424201 -31.916367 -4.048351 2.226615 17.896093 2.141910 0.112154 2.010642 0.155610 0.188957 3.333156 0.260309 1.050423 15.745756 1.356674 -0.311673 19.620676 -1.910130 0.014607 0.654191 -3.391668 0.573948 1.172371 -2.244469 6.324246 -8.418516 -14.952318 -45.051636 -53.748634 94.685969 -2.851733 3.748822 -14.453392 2.942150 0.174962 3.612156 -8.570906 -3.861858 11.782909 63.382090 -66.056431 -104.338995 2.121722 9.626276 13.800988 -5.015611 -54.551500 -0.867126 -145.857223 75.723205 -136.762341 -15.210292 -20.601102 -4.748568 -0.331913 -1.332488 -0.438960 2.777213 -57.829371 13.995026 -97.792836 80.405307 -103.593129 2.945729 -3.006939 6.379681 0.835280 0.120360 0.198755
-26.814075 46.689686 17.768576 175.230598 -31.865303 -3.983389 2.303998 17.859177 2.104909 0.139028 2.000291 0.162668 0.179463 3.323591 0.240841 1.102306 15.719813 1.326066 -0.290355 19.611832 -1.982450 0.075819 0.639549 -3.530269 0.581041 1.145936 -2.289227 6.521782 -8.320464 -14.925011 -44.973764 -53.862674 94.601068 -2.821231 3.782500 -14.763208 2.953401 0.198421 3.731218 -8.407398 -3.748834 11.812251 63.569183 -66.200886 -104.587241 1.961837 9.706919 13.494421 -5.453789 -54.555944 -0.831928 -145.440850 75.670168 -136.335091 -15.282685 -20.472024 -4.815944 -0.339612 -1.382838 -0.467578 2.851231 -57.889767 14.026762 -98.138801 80.437341 -103.870843 2.936219 -3.059362 6.370282 0.854636 0.123441 0.176963
-26.804613 46.687427 17.767131 175.028313 -31.813937 -3.930744 2.397392 17.815572 2.086710 0.205734 1.985918 0.193992 0.128676 3.319688 0.198571 1.153691 15.695938 1.295347 -0.270529 19.603685 -2.047537 0.132110 0.626151 -3.655190 0.583819 1.120095 -2.328952 6.692348 -8.228219 -14.914201 -44.875695 -53.955883 94.504254 -2.819785 3.828916 -14.924428 2.979038 0.213993 3.823231 -8.242150 -3.662503 11.864698 63.704389 -66.354858 -104.777768 1.777488 9.782961 13.198695 -5.884955 -54.557668 -0.775845 -145.192772 75.656386 -136.054936 -15.307833 -20.347347 -4.928708 -0.324296 -1.423114 -0.481785 2.914524 -57.952013 14.086894 -98.490818 80.466620 -104.140627 2.920905 -3.126122 6.351361 0.878908 0.137838 0.162212
